<svg width="634" height="163" viewBox="0 0 634 163" fill="none" xmlns="http://www.w3.org/2000/svg">
<path d="M24.6706 5.87596L19.0273 6.87146L21.9957 23.7082C20.3177 23.9695 18.641 24.2391 16.9656 24.5168L14.8953 12.7726L9.25211 13.7671L11.3183 25.4812C9.49189 25.8029 7.66704 26.1332 5.84375 26.4719L6.89179 32.1056C8.71535 31.7662 10.5201 31.4402 12.3128 31.1238L14.5592 43.8645L20.2027 42.8699L17.9615 30.1579C19.65 29.8777 21.3265 29.6087 22.9909 29.3492L26.1035 47.0023L31.7471 46.0071L28.6599 28.5005C31.3606 28.1127 34.0294 27.7562 36.6762 27.4244C41.6235 42.1931 47.7223 59.2588 57.9859 70.2272C60.7623 79.9056 61.1253 85.3203 68.3075 98.6914C61.1253 110.789 56.0315 131.164 53.2331 149.947L37.9519 151.857V156.633H61.1253C66.219 141.352 81.5003 110.789 81.5003 110.789C81.5003 110.789 96.7815 141.352 101.875 156.633H125.049V151.857L109.767 149.947C106.969 131.164 101.875 110.789 93.5979 98.6914C101.875 85.3203 101.294 79.722 105.005 70.2374C115.272 59.2693 121.375 42.1979 126.324 27.4251C128.971 27.7562 131.64 28.1127 134.341 28.5011L131.254 46.0077L136.898 47.0023L140.01 29.3492C141.675 29.6087 143.351 29.8777 145.04 30.1579L142.798 42.8699L148.442 43.8648L150.688 31.1241C152.481 31.4402 154.286 31.7662 156.109 32.1056L157.157 26.4719C155.317 26.1297 153.494 25.8002 151.683 25.4808L153.749 13.7665L148.106 12.7716L146.035 24.5159C144.347 24.2357 142.67 23.9661 141.005 23.7073L143.974 6.87051L138.33 5.875L135.336 22.8595C116.514 20.1553 99.0043 18.7959 81.5003 18.7959C63.9969 18.7959 46.4861 20.1553 27.6651 22.8604L24.6706 5.87596V5.87596ZM81.5003 24.5073C92.8116 24.5073 104.126 25.0899 115.826 26.2465C111.343 37.3439 103.584 49.6472 95.7051 58.7086C92.4178 63.4395 87.3422 66.5371 81.5003 66.5371C75.6584 66.5371 70.5825 63.4395 67.2951 58.7086C59.4163 49.6472 51.6573 37.3435 47.1741 26.2465C58.8738 25.0899 70.1883 24.5073 81.5003 24.5073ZM81.5003 30.8809C74.8672 30.8809 69.0842 37.3244 69.0842 45.8437C69.0842 54.363 74.8672 60.8066 81.5003 60.8066C88.1333 60.8066 93.9163 54.363 93.9163 45.8437C93.9163 37.3244 88.1333 30.8809 81.5003 30.8809Z" fill="white"/>
<path d="M218.55 136.5C210.55 136.5 204.45 134.25 200.25 129.75C196.05 125.15 193.95 118.6 193.95 110.1V54.9C193.95 46.4 196.05 39.9 200.25 35.4C204.45 30.8 210.55 28.5 218.55 28.5C226.55 28.5 232.65 30.8 236.85 35.4C241.05 39.9 243.15 46.4 243.15 54.9V63.9H227.55V53.85C227.55 46.95 224.7 43.5 219 43.5C213.3 43.5 210.45 46.95 210.45 53.85V111.3C210.45 118.1 213.3 121.5 219 121.5C224.7 121.5 227.55 118.1 227.55 111.3V90.75H219.3V75.75H243.15V110.1C243.15 118.6 241.05 125.15 236.85 129.75C232.65 134.25 226.55 136.5 218.55 136.5ZM266.696 90.3L246.746 30H264.296L275.546 68.55H275.846L287.096 30H303.146L283.196 90.3V135H266.696V90.3ZM310.58 30H334.13L344.63 105.15H344.93L355.43 30H378.98V135H363.38V55.5H363.08L351.08 135H337.28L325.28 55.5H324.98V135H310.58V30ZM415.316 30H439.766C448.266 30 454.466 32 458.366 36C462.266 39.9 464.216 45.95 464.216 54.15V60.6C464.216 71.5 460.616 78.4 453.416 81.3V81.6C457.416 82.8 460.216 85.25 461.816 88.95C463.516 92.65 464.366 97.6 464.366 103.8V122.25C464.366 125.25 464.466 127.7 464.666 129.6C464.866 131.4 465.366 133.2 466.166 135H449.366C448.766 133.3 448.366 131.7 448.166 130.2C447.966 128.7 447.866 126 447.866 122.1V102.9C447.866 98.1 447.066 94.75 445.466 92.85C443.966 90.95 441.316 90 437.516 90H431.816V135H415.316V30ZM437.816 75C441.116 75 443.566 74.15 445.166 72.45C446.866 70.75 447.716 67.9 447.716 63.9V55.8C447.716 52 447.016 49.25 445.616 47.55C444.316 45.85 442.216 45 439.316 45H431.816V75H437.816ZM488.564 30H510.914L528.014 135H511.514L508.514 114.15V114.45H489.764L486.764 135H471.464L488.564 30ZM506.564 100.2L499.214 48.3H498.914L491.714 100.2H506.564ZM542.034 45H524.784V30H575.784V45H558.534V135H542.034V45ZM605.223 136.5C597.223 136.5 591.173 134.25 587.073 129.75C582.973 125.15 580.923 118.6 580.923 110.1V104.1H596.523V111.3C596.523 118.1 599.373 121.5 605.073 121.5C607.873 121.5 609.973 120.7 611.373 119.1C612.873 117.4 613.623 114.7 613.623 111C613.623 106.6 612.623 102.75 610.623 99.45C608.623 96.05 604.923 92 599.523 87.3C592.723 81.3 587.973 75.9 585.273 71.1C582.573 66.2 581.223 60.7 581.223 54.6C581.223 46.3 583.323 39.9 587.523 35.4C591.723 30.8 597.823 28.5 605.823 28.5C613.723 28.5 619.673 30.8 623.673 35.4C627.773 39.9 629.823 46.4 629.823 54.9V59.25H614.223V53.85C614.223 50.25 613.523 47.65 612.123 46.05C610.723 44.35 608.673 43.5 605.973 43.5C600.473 43.5 597.723 46.85 597.723 53.55C597.723 57.35 598.723 60.9 600.723 64.2C602.823 67.5 606.573 71.5 611.973 76.2C618.873 82.2 623.623 87.65 626.223 92.55C628.823 97.45 630.123 103.2 630.123 109.8C630.123 118.4 627.973 125 623.673 129.6C619.473 134.2 613.323 136.5 605.223 136.5Z" fill="white"/>
</svg>
