<?xml version="1.0" standalone="no"?>
<!DOCTYPE svg PUBLIC "-//W3C//DTD SVG 20010904//EN"
 "http://www.w3.org/TR/2001/REC-SVG-20010904/DTD/svg10.dtd">
<svg version="1.0" xmlns="http://www.w3.org/2000/svg"
 width="700.000000pt" height="700.000000pt" viewBox="0 0 700.000000 700.000000"
 preserveAspectRatio="xMidYMid meet">
<metadata>
Created by potrace 1.14, written by Peter Selinger 2001-2017
</metadata>
<g transform="translate(0.000000,700.000000) scale(0.100000,-0.100000)"
fill="#000000" stroke="none">
<path d="M1049 6746 c-2 -2 -20 -6 -39 -9 -19 -3 -70 -11 -113 -17 l-78 -13 5
-41 c3 -22 8 -52 11 -66 6 -28 7 -37 29 -165 9 -49 18 -101 21 -115 3 -14 7
-38 10 -55 3 -16 7 -41 10 -55 3 -14 7 -38 10 -55 3 -16 7 -41 10 -55 3 -14 8
-46 11 -71 l6 -47 -43 -7 c-24 -5 -53 -9 -64 -11 -11 -1 -39 -6 -62 -9 -47 -7
-46 -9 -62 90 -10 60 -57 329 -66 374 -2 13 -6 25 -8 27 -4 5 -228 -33 -234
-39 -2 -3 5 -58 17 -123 11 -66 27 -159 36 -209 17 -102 24 -142 27 -158 2
-11 -24 -18 -138 -37 -39 -6 -75 -14 -82 -18 -7 -5 -5 -37 9 -112 11 -58 20
-110 21 -117 0 -6 11 -9 26 -7 14 3 66 12 114 20 48 9 90 14 93 12 3 -4 10
-36 28 -138 2 -14 11 -63 20 -110 17 -92 18 -96 36 -212 11 -64 16 -78 31 -78
17 0 59 7 175 31 l51 10 -23 132 c-30 169 -45 254 -51 292 -2 17 -8 48 -13 69
-5 22 -7 43 -5 47 3 4 26 10 52 13 81 12 107 16 136 22 21 4 27 2 28 -13 0
-10 2 -25 4 -33 3 -13 26 -138 41 -225 7 -38 32 -182 38 -215 3 -14 12 -68 21
-120 25 -151 24 -149 45 -145 10 2 40 7 67 11 26 5 50 9 53 9 3 1 26 5 53 9
26 5 47 13 47 20 0 6 -9 61 -19 121 -11 61 -22 126 -25 145 -4 19 -11 58 -16
85 -5 28 -12 65 -15 83 -7 42 -11 66 -34 192 -10 58 -17 108 -15 111 2 4 30
10 61 14 32 4 66 9 77 11 11 2 42 6 70 9 28 3 70 8 93 11 40 6 42 5 48 -22 4
-16 13 -43 21 -61 8 -17 14 -34 14 -38 0 -4 32 -97 70 -206 236 -670 483
-1143 760 -1461 44 -50 44 -49 120 -343 80 -307 150 -494 291 -782 l70 -142
-60 -113 c-143 -273 -296 -707 -400 -1138 -43 -181 -63 -266 -67 -290 -3 -14
-16 -81 -29 -150 -13 -69 -27 -141 -30 -160 -3 -19 -8 -42 -10 -50 -2 -8 -7
-34 -10 -57 -2 -23 -9 -61 -14 -85 -5 -24 -12 -69 -16 -100 -4 -33 -11 -58
-18 -59 -7 0 -21 -2 -32 -3 -11 -2 -47 -6 -81 -10 -33 -4 -71 -8 -85 -11 -13
-2 -44 -6 -69 -9 -25 -3 -61 -7 -80 -10 -34 -5 -74 -10 -175 -21 -27 -3 -59
-8 -70 -10 -11 -2 -28 -4 -37 -4 -16 -1 -18 -13 -18 -104 l0 -104 497 1 498 1
19 55 c46 132 211 537 296 725 208 459 249 548 432 925 50 102 97 200 104 218
8 17 18 32 22 32 15 0 395 -795 559 -1170 30 -69 63 -144 74 -166 37 -82 114
-272 179 -444 l67 -175 494 0 494 0 3 103 c2 78 0 102 -10 103 -7 0 -24 2 -38
4 -14 2 -50 6 -80 9 -30 3 -64 8 -75 10 -21 4 -117 16 -170 22 -46 4 -126 14
-165 20 -19 2 -53 7 -75 10 -21 2 -40 6 -41 7 -2 1 -5 20 -8 42 -13 97 -18
129 -47 285 -127 691 -278 1189 -482 1598 -62 125 -88 171 -129 230 l-29 43
20 32 c42 67 148 266 188 355 55 119 91 223 159 452 94 315 113 367 153 414
72 85 94 113 161 206 235 329 456 805 676 1458 l48 143 56 -5 c50 -6 112 -14
150 -21 8 -1 43 -6 78 -10 34 -4 62 -8 62 -10 0 -1 -5 -27 -11 -56 -5 -30 -12
-66 -14 -81 -2 -15 -8 -51 -14 -80 -6 -29 -19 -105 -30 -168 -11 -63 -27 -155
-36 -205 -31 -176 -33 -162 18 -169 45 -7 57 -9 142 -25 27 -5 51 -8 53 -7 2
3 38 200 47 266 4 24 8 47 10 50 2 3 6 26 10 50 3 25 15 95 26 155 26 143 39
218 39 228 0 4 15 5 33 2 135 -22 173 -29 179 -34 4 -3 3 -24 -2 -46 -8 -38
-16 -80 -26 -150 -3 -16 -11 -66 -20 -110 -8 -44 -19 -107 -25 -140 -6 -33
-12 -68 -14 -77 -1 -10 4 -19 14 -22 31 -9 222 -38 225 -35 2 2 24 123 49 268
26 145 49 266 52 269 4 4 118 -14 213 -34 18 -3 22 0 22 18 0 13 9 64 19 113
10 50 16 95 14 101 -2 7 -28 15 -56 19 -29 5 -54 9 -57 10 -3 0 -27 5 -55 9
-27 4 -53 10 -56 12 -4 2 -3 21 1 41 5 21 12 61 16 88 3 28 8 53 10 56 2 3 8
34 13 70 6 35 13 74 15 85 2 12 7 38 10 58 3 20 8 51 11 70 7 39 20 33 -138
61 -49 9 -91 14 -94 11 -4 -3 -19 -81 -35 -173 -16 -93 -32 -181 -35 -198 -3
-16 -8 -50 -12 -75 -6 -40 -9 -45 -31 -44 -25 1 -106 11 -145 19 -11 2 -26 4
-33 4 -16 1 -15 14 32 281 19 107 38 211 41 230 3 19 8 46 10 60 12 58 15 77
21 116 l5 42 -46 7 c-26 3 -54 8 -63 9 -10 2 -35 6 -57 10 -22 4 -48 9 -57 12
-13 4 -18 -3 -23 -33 -3 -21 -10 -58 -15 -83 -5 -25 -12 -61 -14 -80 -3 -19
-19 -109 -35 -200 -17 -91 -33 -181 -36 -200 -22 -136 -19 -131 -73 -124 -26
3 -58 7 -72 10 -14 2 -50 6 -80 10 -30 3 -64 8 -75 10 -11 2 -42 6 -70 9 -27
3 -66 8 -85 10 -96 12 -128 16 -160 20 -19 3 -66 7 -105 11 -38 3 -81 7 -95 9
-14 2 -59 7 -100 10 -41 3 -95 7 -120 10 -113 11 -171 15 -250 20 -47 3 -114
7 -150 10 -88 6 -313 17 -435 21 -134 4 -827 4 -940 0 -147 -6 -346 -16 -415
-21 -36 -2 -108 -7 -160 -10 -52 -3 -111 -8 -130 -10 -19 -2 -73 -7 -120 -10
-97 -8 -121 -10 -205 -19 -33 -3 -85 -8 -115 -11 -30 -3 -89 -10 -130 -15 -95
-12 -178 -22 -210 -25 -44 -5 -124 -15 -155 -20 -16 -3 -46 -7 -65 -9 -19 -3
-56 -8 -82 -11 -36 -6 -49 -4 -52 6 -2 8 -23 124 -46 259 -23 135 -48 277 -56
315 -8 39 -16 85 -18 103 -3 33 -9 45 -17 38z m3041 -810 c85 -4 182 -9 215
-11 33 -2 101 -7 150 -10 50 -3 113 -8 140 -10 28 -2 90 -7 139 -10 48 -4 98
-9 110 -11 11 -2 40 -5 62 -5 63 -2 68 -9 46 -60 -50 -115 -141 -302 -189
-390 -11 -19 -35 -61 -53 -94 -113 -205 -331 -527 -488 -719 -48 -59 -100
-124 -115 -144 -80 -104 -173 -188 -267 -240 -279 -153 -613 -103 -849 128
-41 40 -243 289 -335 412 -217 292 -446 678 -569 958 -29 65 -57 133 -57 135
0 8 72 17 245 30 33 3 83 7 110 9 28 3 97 8 155 11 58 4 130 8 160 10 30 2
138 7 240 10 102 4 186 8 187 9 5 5 818 -2 963 -8z"/>
<path d="M3467 5674 c-1 -1 -18 -4 -37 -7 -196 -27 -377 -210 -437 -440 -20
-77 -23 -103 -23 -197 0 -146 24 -239 93 -363 156 -277 467 -357 711 -183 102
72 175 178 227 326 20 56 23 85 24 215 0 118 -4 163 -18 209 -80 258 -261 422
-485 439 -28 2 -53 3 -55 1z"/>
</g>
</svg>
