<?xml version="1.0" standalone="no"?>
<!DOCTYPE svg PUBLIC "-//W3C//DTD SVG 20010904//EN"
 "http://www.w3.org/TR/2001/REC-SVG-20010904/DTD/svg10.dtd">
<svg version="1.0" xmlns="http://www.w3.org/2000/svg"
 width="1024.000000pt" height="1024.000000pt" viewBox="0 0 1024.000000 1024.000000"
 preserveAspectRatio="xMidYMid meet">
<metadata>
Created by potrace 1.14, written by Peter Selinger 2001-2017
</metadata>
<g transform="translate(0.000000,1024.000000) scale(0.100000,-0.100000)"
fill="#000000" stroke="none">
<path d="M2180 8806 c-99 -18 -115 -24 -118 -41 -1 -11 29 -195 67 -410 38
-214 66 -393 63 -396 -8 -8 -232 -42 -237 -37 -2 2 -26 128 -53 281 -27 152
-51 280 -54 282 -3 3 -64 -4 -137 -16 -104 -18 -131 -25 -131 -38 0 -9 21
-136 47 -283 26 -147 44 -271 40 -274 -3 -4 -60 -16 -127 -29 -66 -12 -123
-24 -126 -27 -7 -8 37 -250 47 -262 5 -6 58 -1 134 13 70 13 127 21 129 20 2
-2 27 -141 56 -309 29 -168 54 -307 56 -308 1 -2 64 7 139 19 l136 24 -7 40
c-3 22 -28 162 -54 310 -27 149 -47 271 -45 273 4 5 238 42 241 39 3 -3 154
-847 154 -859 0 -5 272 40 276 45 1 1 -32 193 -73 426 -53 300 -72 426 -64
430 20 13 372 54 380 45 4 -5 36 -92 71 -194 287 -844 570 -1418 880 -1785 36
-42 73 -87 82 -99 10 -11 47 -133 83 -271 118 -447 174 -604 336 -935 l100
-205 -47 -85 c-258 -467 -494 -1257 -648 -2170 l-43 -254 -29 -7 c-16 -4 -185
-26 -376 -50 l-348 -43 0 -118 0 -118 568 0 569 0 38 103 c167 455 456 1105
845 1905 62 127 116 232 120 232 4 0 64 -117 134 -260 355 -727 677 -1451 821
-1847 l48 -133 568 0 569 0 0 118 0 118 -372 47 c-230 29 -374 51 -379 58 -4
7 -10 37 -14 68 -12 105 -95 541 -141 749 -147 657 -357 1240 -573 1584 -34
53 -61 100 -61 104 0 4 26 53 59 108 109 187 209 401 268 571 13 39 55 177 93
307 107 365 117 387 211 498 329 389 608 952 904 1825 32 94 62 174 66 179 8
9 359 -32 379 -44 9 -5 -8 -121 -63 -431 -41 -233 -74 -425 -73 -426 3 -4 276
-49 276 -45 0 12 151 856 154 859 3 3 237 -34 241 -39 2 -2 -21 -140 -51 -308
-29 -167 -50 -307 -46 -311 8 -7 262 -53 266 -47 2 1 27 140 56 308 29 168 54
307 56 309 2 2 60 -7 129 -19 71 -13 130 -19 134 -14 10 12 54 254 47 261 -3
3 -59 15 -126 28 -66 12 -123 25 -127 28 -4 4 14 128 40 275 26 147 47 274 47
282 0 12 -30 21 -131 38 -72 13 -134 21 -136 18 -3 -3 -28 -130 -55 -283 -27
-152 -50 -279 -52 -281 -6 -5 -230 29 -238 37 -3 3 25 182 63 396 38 215 68
399 67 410 -3 17 -19 23 -132 42 -72 12 -132 21 -134 18 -3 -2 -37 -188 -77
-412 l-72 -408 -34 1 c-19 1 -160 18 -314 38 -1632 209 -3100 203 -4741 -19
-103 -14 -190 -22 -194 -18 -4 4 -37 184 -74 398 -37 215 -70 398 -72 408 -6
20 -8 20 -154 -7z m3710 -906 c374 -19 882 -59 901 -71 21 -12 -135 -343 -287
-612 -198 -349 -370 -594 -695 -994 -163 -199 -295 -291 -494 -344 -164 -43
-374 -23 -532 51 -116 54 -231 144 -304 236 -24 31 -82 101 -128 157 -253 305
-522 712 -721 1092 -98 187 -194 406 -181 415 30 18 744 65 1281 84 172 6 951
-3 1160 -14z"/>
<path d="M4958 7576 c-165 -59 -286 -174 -368 -351 -58 -124 -74 -199 -74
-355 0 -161 15 -232 79 -365 55 -115 122 -196 213 -262 104 -74 165 -95 292
-101 89 -3 115 -1 170 18 100 33 168 77 247 156 59 59 81 92 122 176 70 146
85 213 85 383 -1 110 -5 156 -22 217 -46 167 -144 314 -270 405 -106 76 -164
96 -297 100 -97 3 -118 1 -177 -21z"/>
</g>
</svg>
